<svg width="120" height="120" viewBox="0 0 120 120" fill="none" xmlns="http://www.w3.org/2000/svg">
<circle cx="60" cy="60" r="60" fill="url(#paint0_linear_32_3)"/>
<path d="M60 0C26.8555 0 0 26.8555 0 60C0 93.1445 26.8555 120 60 120C93.1445 120 120 93.1445 120 60C120 26.8555 93.1445 0 60 0ZM60 10C87.7734 10 110 32.2266 110 60C110 87.7734 87.7734 110 60 110C32.2266 110 10 87.7734 10 60C10 32.2266 32.2266 10 60 10ZM52.0312 33.75C42.3047 33.75 33.8281 34.6484 25.7812 37.1875C23.6523 37.6172 21.875 39.2187 21.875 42.1875C21.875 45.1562 24.0625 47.7734 27.0313 47.3437C28.3008 47.3437 29.1602 46.875 30 46.875C36.7773 45.1758 44.4141 44.375 52.0312 44.375C66.8359 44.375 82.0313 47.6758 92.1875 53.5938C93.457 54.0234 93.8867 54.5313 95.1562 54.5313C98.125 54.5313 100.195 52.3438 100.625 49.375C100.625 46.8359 99.3555 45.2148 97.6563 44.375C84.9609 37.1875 68.1055 33.75 52.0312 33.75ZM50.625 52.3438C41.7383 52.3438 35.4102 53.6133 29.0625 55.3125C26.9531 56.1523 25.7812 57.4609 25.7812 60C25.7812 62.1094 27.4609 64.2188 30 64.2188C30.8594 64.2188 31.2305 64.1797 32.5 63.75C37.1484 62.4805 43.5352 61.7188 50.3125 61.7188C64.2773 61.7188 76.4258 65.1172 85.3125 70.625C86.1523 71.0547 87.0117 71.4063 88.2813 71.4063C90.8203 71.4063 92.5 69.2578 92.5 66.7188C92.5 65.0195 91.6992 63.3398 90 62.5C79.0039 55.7227 65.0195 52.3438 50.625 52.3438ZM52.0312 70.625C44.8437 70.625 38.0273 71.4258 31.25 73.125C29.5508 73.5547 28.2813 74.7656 28.2813 76.875C28.2813 78.5742 29.6094 80.3125 31.7188 80.3125C32.1484 80.3125 33.3789 79.8438 34.2188 79.8438C39.7266 78.5742 45.6445 77.8125 51.5625 77.8125C62.1289 77.8125 71.7969 80.3516 79.8438 85C80.7031 85.4297 81.6602 85.7812 82.5 85.7812C84.1992 85.7812 85.8203 84.5117 86.25 82.8125C86.25 80.6836 85.332 79.9023 84.0625 79.0625C74.7461 73.5547 63.8672 70.625 52.0312 70.625Z" fill="white"/>
<defs>
<linearGradient id="paint0_linear_32_3" x1="60" y1="0" x2="60" y2="120" gradientUnits="userSpaceOnUse">
<stop/>
<stop offset="1" stop-color="#1E293B"/>
</linearGradient>
</defs>
</svg>
