<svg width="208" height="208" viewBox="0 0 208 208" fill="none" xmlns="http://www.w3.org/2000/svg">
<circle cx="104" cy="104" r="104" fill="url(#paint0_linear_30_3101)"/>
<path d="M104 0C46.5495 0 0 46.5495 0 104C0 161.451 46.5495 208 104 208C161.451 208 208 161.451 208 104C208 46.5495 161.451 0 104 0ZM104 17.3333C152.141 17.3333 190.667 55.8594 190.667 104C190.667 152.141 152.141 190.667 104 190.667C55.8594 190.667 17.3333 152.141 17.3333 104C17.3333 55.8594 55.8594 17.3333 104 17.3333ZM90.1875 58.5C73.3281 58.5 58.6354 60.0573 44.6875 64.4583C40.9974 65.2031 37.9167 67.9792 37.9167 73.125C37.9167 78.2708 41.7083 82.8073 46.8542 82.0625C49.0547 82.0625 50.5443 81.25 52 81.25C63.7474 78.3047 76.9844 76.9167 90.1875 76.9167C115.849 76.9167 142.188 82.638 159.792 92.8958C161.992 93.6406 162.737 94.5208 164.938 94.5208C170.083 94.5208 173.672 90.7292 174.417 85.5833C174.417 81.1823 172.216 78.3724 169.271 76.9167C147.266 64.4583 118.049 58.5 90.1875 58.5ZM87.75 90.7292C72.3464 90.7292 61.3776 92.9297 50.375 95.875C46.7187 97.3307 44.6875 99.599 44.6875 104C44.6875 107.656 47.599 111.313 52 111.313C53.4896 111.313 54.1328 111.245 56.3333 110.5C64.3906 108.299 75.4609 106.979 87.2083 106.979C111.414 106.979 132.471 112.87 147.875 122.417C149.331 123.161 150.82 123.771 153.021 123.771C157.422 123.771 160.333 120.047 160.333 115.646C160.333 112.701 158.945 109.789 156 108.333C136.94 96.5859 112.701 90.7292 87.75 90.7292ZM90.1875 122.417C77.7292 122.417 65.9141 123.805 54.1667 126.75C51.2214 127.495 49.0208 129.594 49.0208 133.25C49.0208 136.195 51.3229 139.208 54.9792 139.208C55.724 139.208 57.8568 138.396 59.3125 138.396C68.8594 136.195 79.1172 134.875 89.375 134.875C107.69 134.875 124.448 139.276 138.396 147.333C139.885 148.078 141.544 148.688 143 148.688C145.945 148.688 148.755 146.487 149.5 143.542C149.5 139.852 147.909 138.497 145.708 137.042C129.56 127.495 110.703 122.417 90.1875 122.417Z" fill="white"/>
<circle cx="104.5" cy="103.5" r="89" stroke="url(#paint1_linear_30_3101)" stroke-width="7"/>
<defs>
<linearGradient id="paint0_linear_30_3101" x1="104" y1="0" x2="104" y2="208" gradientUnits="userSpaceOnUse">
<stop/>
<stop offset="1" stop-color="#1E293B"/>
</linearGradient>
<linearGradient id="paint1_linear_30_3101" x1="104.5" y1="11" x2="104.5" y2="196" gradientUnits="userSpaceOnUse">
<stop/>
<stop offset="1" stop-color="#1E293B"/>
</linearGradient>
</defs>
</svg>
