<svg width="500" height="500" viewBox="0 0 500 500" fill="none" xmlns="http://www.w3.org/2000/svg">
<path opacity="0.992" fill-rule="evenodd" clip-rule="evenodd" d="M364.5 35.5C371.55 36.1751 378.55 37.1751 385.5 38.5C384.483 43.0538 383.15 47.5538 381.5 52C381.93 53.4341 382.764 54.6008 384 55.5C385.167 61 383 63.1667 377.5 62C376.57 60.8061 375.903 59.4728 375.5 58C376.773 52.8469 378.44 47.8469 380.5 43C376.304 41.5225 371.971 40.6892 367.5 40.5C367.481 42.0603 367.148 43.5603 366.5 45C368.016 47.0242 369.349 49.1909 370.5 51.5C369.034 55.4232 366.368 56.4232 362.5 54.5C361.954 53.2278 361.621 51.8945 361.5 50.5C363.048 45.3568 364.048 40.3568 364.5 35.5Z" fill="#876493"/>
<path opacity="0.995" fill-rule="evenodd" clip-rule="evenodd" d="M217.5 65.5C218.146 67.1561 218.813 68.8228 219.5 70.5C219.5 72.5 218.5 73.5 216.5 73.5C211.976 71.9146 211.309 69.2479 214.5 65.5C217.011 58.0785 214.345 55.4118 206.5 57.5C206.67 58.8221 206.337 59.9887 205.5 61C207.863 61.5885 208.863 63.0885 208.5 65.5C207.442 68.2418 205.609 68.9085 203 67.5C202.51 66.2068 202.343 64.8734 202.5 63.5C203.383 60.1134 204.049 56.9467 204.5 54C209.223 53.3762 213.89 53.7095 218.5 55C219.428 55.3879 220.095 56.0546 220.5 57C219.197 59.7435 218.197 62.5768 217.5 65.5Z" fill="#876493"/>
<path opacity="0.995" fill-rule="evenodd" clip-rule="evenodd" d="M202.5 63.5C202.343 64.8734 202.51 66.2068 203 67.5C205.609 68.9085 207.442 68.2418 208.5 65.5C210.5 65.5 212.5 65.5 214.5 65.5C211.309 69.2479 211.976 71.9146 216.5 73.5C218.5 73.5 219.5 72.5 219.5 70.5C218.813 68.8228 218.146 67.1561 217.5 65.5C275.152 64.7804 332.819 64.1137 390.5 63.5C401.848 63.6675 413.181 64.1675 424.5 65C454.225 73.6167 464.725 92.7834 456 122.5C449.642 135.182 439.475 143.015 425.5 146C416.84 146.5 408.173 146.666 399.5 146.5C395.672 140.381 391.005 134.881 385.5 130C371.086 129.895 356.752 128.895 342.5 127C342.043 126.586 341.709 126.086 341.5 125.5C342.5 124.667 343.5 123.833 344.5 123C354.2 121.746 363.866 120.413 373.5 119C371.5 117.333 369.5 115.667 367.5 114C362.392 113.726 357.725 112.226 353.5 109.5C354.908 108.757 356.241 107.923 357.5 107C355.5 105.667 353.5 104.333 351.5 103C330.449 102.954 309.449 102.288 288.5 101C287.542 99.8525 287.875 98.8525 289.5 98C303.689 95.252 318.022 93.9187 332.5 94C291.437 76.4173 249.771 74.9173 207.5 89.5C219.768 90.8216 231.768 93.3216 243.5 97C244.833 98 244.833 99 243.5 100C237.897 101.124 232.231 101.79 226.5 102C210.5 102.333 194.5 102.667 178.5 103C170.893 107.609 163.559 112.609 156.5 118C164.864 118.315 173.197 118.982 181.5 120C184.034 120.516 186.2 121.683 188 123.5C188.507 124.996 188.007 126.163 186.5 127C183.899 127.92 181.232 128.587 178.5 129C166.504 129.737 154.504 130.403 142.5 131C132.835 140.842 124.501 151.675 117.5 163.5C134.475 165.26 151.475 166.593 168.5 167.5C176.621 168.187 184.621 169.52 192.5 171.5C192.64 173.124 191.973 174.29 190.5 175C180.54 176.297 170.54 177.131 160.5 177.5C143.484 177.737 126.484 178.404 109.5 179.5C104.962 187.662 101.962 196.329 100.5 205.5C107.544 205.938 114.544 206.771 121.5 208C123.997 208.412 125.997 209.578 127.5 211.5C126.975 212.192 126.308 212.692 125.5 213C116.173 213.5 106.839 213.666 97.5001 213.5C96.8334 218.5 96.1668 223.5 95.5001 228.5C80.4984 229.902 65.4984 229.736 50.5001 228C28.422 220.915 17.5887 205.748 18.0001 182.5C23.3503 158.154 38.517 145.987 63.5001 146C77.1633 144.004 86.3299 136.504 91.0001 123.5C92.2514 108.212 92.9181 92.8786 93.0001 77.5C93.7074 70.4593 97.5408 66.2926 104.5 65C136.019 64.1851 167.519 64.3517 199 65.5C200.434 65.1382 201.601 64.4715 202.5 63.5Z" fill="#FEF9F4"/>
<path fill-rule="evenodd" clip-rule="evenodd" d="M399.5 146.5C385.188 143.691 373.354 147.691 364 158.5C363.51 159.793 363.343 161.127 363.5 162.5C357.024 156.269 352.691 157.602 350.5 166.5C335.026 149.761 316.359 138.094 294.5 131.5C294.822 129.278 294.155 127.444 292.5 126C276.167 125.333 259.833 125.333 243.5 126C241.846 126.608 240.179 127.108 238.5 127.5C210.498 132.871 187.165 146.204 168.5 167.5C151.475 166.593 134.475 165.26 117.5 163.5C124.501 151.675 132.835 140.842 142.5 131C154.504 130.403 166.504 129.737 178.5 129C181.232 128.587 183.899 127.92 186.5 127C188.007 126.163 188.507 124.996 188 123.5C186.2 121.683 184.034 120.516 181.5 120C173.197 118.982 164.864 118.315 156.5 118C163.559 112.609 170.893 107.609 178.5 103C194.5 102.667 210.5 102.333 226.5 102C232.231 101.79 237.897 101.124 243.5 100C244.833 99 244.833 98 243.5 97C231.768 93.3216 219.768 90.8216 207.5 89.5C249.771 74.9173 291.437 76.4173 332.5 94C318.022 93.9187 303.689 95.252 289.5 98C287.875 98.8525 287.542 99.8525 288.5 101C309.449 102.288 330.449 102.954 351.5 103C353.5 104.333 355.5 105.667 357.5 107C356.241 107.923 354.908 108.757 353.5 109.5C357.725 112.226 362.392 113.726 367.5 114C369.5 115.667 371.5 117.333 373.5 119C363.866 120.413 354.2 121.746 344.5 123C343.5 123.833 342.5 124.667 341.5 125.5C341.709 126.086 342.043 126.586 342.5 127C356.752 128.895 371.086 129.895 385.5 130C391.005 134.881 395.672 140.381 399.5 146.5Z" fill="#F4D2FF"/>
<path fill-rule="evenodd" clip-rule="evenodd" d="M294.5 131.5C294.046 138.37 291.379 144.204 286.5 149C287.126 149.75 287.626 150.584 288 151.5C288.499 155.152 288.665 158.818 288.5 162.5C287.883 162.389 287.383 162.056 287 161.5C286.667 159.167 286.333 156.833 286 154.5C285.632 153.09 284.799 152.09 283.5 151.5C279.798 153.758 275.798 155.091 271.5 155.5C269.167 155.5 266.833 155.5 264.5 155.5C272.799 151.923 277.466 145.59 278.5 136.5C278.61 134.626 277.944 133.126 276.5 132C264.167 131.333 251.833 131.333 239.5 132C235.278 133.026 231.778 135.193 229 138.5C228.601 138.272 228.435 137.938 228.5 137.5C230.861 133.139 234.194 129.806 238.5 127.5C240.179 127.108 241.846 126.608 243.5 126C259.833 125.333 276.167 125.333 292.5 126C294.155 127.444 294.822 129.278 294.5 131.5Z" fill="#632A0E"/>
<path fill-rule="evenodd" clip-rule="evenodd" d="M238.5 127.5C234.194 129.806 230.861 133.139 228.5 137.5C224.744 142.498 223.577 148.165 225 154.5C226.356 155.38 227.856 155.714 229.5 155.5C229.5 157.5 229.5 159.5 229.5 161.5C226.757 163.239 224.757 165.573 223.5 168.5C222.842 169.398 222.176 170.398 221.5 171.5C193.762 186.591 178.428 209.924 175.5 241.5C173.471 243.858 171.471 246.192 169.5 248.5C168.359 247.661 167.026 246.994 165.5 246.5C162.696 232.924 154.363 226.924 140.5 228.5C143.251 209.906 149.917 192.906 160.5 177.5C170.54 177.131 180.54 176.297 190.5 175C191.973 174.29 192.64 173.124 192.5 171.5C184.621 169.52 176.621 168.187 168.5 167.5C187.165 146.204 210.498 132.871 238.5 127.5Z" fill="#E7BFF5"/>
<path fill-rule="evenodd" clip-rule="evenodd" d="M264.5 155.5C253.833 155.5 243.167 155.5 232.5 155.5C232.5 157.167 232.5 158.833 232.5 160.5C231.791 161.404 230.791 161.737 229.5 161.5C229.5 159.5 229.5 157.5 229.5 155.5C227.856 155.714 226.356 155.38 225 154.5C223.577 148.165 224.744 142.498 228.5 137.5C228.435 137.938 228.601 138.272 229 138.5C231.778 135.193 235.278 133.026 239.5 132C251.833 131.333 264.167 131.333 276.5 132C277.944 133.126 278.61 134.626 278.5 136.5C277.466 145.59 272.799 151.923 264.5 155.5Z" fill="#673314"/>
<path fill-rule="evenodd" clip-rule="evenodd" d="M294.5 131.5C316.359 138.094 335.026 149.761 350.5 166.5C351.442 171.805 351.609 177.139 351 182.5C343.837 189.652 340.837 198.318 342 208.5C341.153 210.854 340.32 213.188 339.5 215.5C334.46 206.457 328.626 197.79 322 189.5C313.727 181.057 304.227 174.39 293.5 169.5C292.99 166.326 291.323 163.992 288.5 162.5C288.665 158.818 288.499 155.152 288 151.5C287.626 150.584 287.126 149.75 286.5 149C291.379 144.204 294.046 138.37 294.5 131.5Z" fill="#E7BFF5"/>
<path fill-rule="evenodd" clip-rule="evenodd" d="M288.5 162.5C291.323 163.992 292.99 166.326 293.5 169.5C293.5 170.833 293.5 172.167 293.5 173.5C292.692 175.22 291.692 176.887 290.5 178.5C289.128 179.512 287.795 180.512 286.5 181.5C284.322 189.838 279.655 196.505 272.5 201.5C272.769 205.931 272.436 210.265 271.5 214.5C268.116 220.916 262.783 223.416 255.5 222C249.365 219.104 246.698 214.271 247.5 207.5C255.123 211.491 262.79 211.491 270.5 207.5C271.641 205.579 271.808 203.579 271 201.5C263.167 205.472 255.334 205.472 247.5 201.5C247.167 201.5 246.833 201.5 246.5 201.5C243.229 198.732 240.062 195.732 237 192.5C234.924 189.107 233.758 185.44 233.5 181.5C232.5 181.5 231.5 181.5 230.5 181.5C229.71 180.599 228.71 179.932 227.5 179.5C225.457 178.421 224.124 176.754 223.5 174.5C223.5 172.5 223.5 170.5 223.5 168.5C224.757 165.573 226.757 163.239 229.5 161.5C230.791 161.737 231.791 161.404 232.5 160.5C233.434 159.432 233.768 158.099 233.5 156.5C246.344 156.829 259.011 156.495 271.5 155.5C275.798 155.091 279.798 153.758 283.5 151.5C284.799 152.09 285.632 153.09 286 154.5C286.333 156.833 286.667 159.167 287 161.5C287.383 162.056 287.883 162.389 288.5 162.5Z" fill="#F4A390"/>
<path fill-rule="evenodd" clip-rule="evenodd" d="M264.5 155.5C266.833 155.5 269.167 155.5 271.5 155.5C259.011 156.495 246.344 156.829 233.5 156.5C233.768 158.099 233.434 159.432 232.5 160.5C232.5 158.833 232.5 157.167 232.5 155.5C243.167 155.5 253.833 155.5 264.5 155.5Z" fill="#BC755F"/>
<path fill-rule="evenodd" clip-rule="evenodd" d="M363.5 162.5C364.281 167.418 364.781 172.418 365 177.5C366.851 179.336 369.017 180.17 371.5 180C373.804 175.703 376.804 172.036 380.5 169C386.667 168.5 389.5 171.333 389 177.5C385.607 182.72 382.44 188.053 379.5 193.5C378.799 197.727 377.966 202.06 377 206.5C366.392 229.382 356.059 252.382 346 275.5C340.567 281.866 333.734 284.032 325.5 282C322.098 280.6 319.264 278.433 317 275.5C318.516 284.341 323.85 289.008 333 289.5C335.865 289.316 338.698 288.982 341.5 288.5C341.389 289.117 341.056 289.617 340.5 290C337.243 291.043 333.91 291.543 330.5 291.5C329.391 291.443 328.391 291.11 327.5 290.5C323.668 289.182 320.501 286.848 318 283.5C315.361 278.382 312.195 273.715 308.5 269.5C308.5 265.167 308.5 260.833 308.5 256.5C317.215 247.352 320.882 236.352 319.5 223.5C322.833 227.833 326.167 232.167 329.5 236.5C330.308 234.78 331.308 233.113 332.5 231.5C334.119 227.931 335.452 224.264 336.5 220.5C337.737 219.035 338.737 217.368 339.5 215.5C340.32 213.188 341.153 210.854 342 208.5C340.837 198.318 343.837 189.652 351 182.5C351.609 177.139 351.442 171.805 350.5 166.5C352.691 157.602 357.024 156.269 363.5 162.5Z" fill="#F4A491"/>
<path fill-rule="evenodd" clip-rule="evenodd" d="M244.5 166.5C247.006 169.086 249.506 169.086 252 166.5C252.348 168.923 251.182 169.923 248.5 169.5C246.018 169.89 244.685 168.89 244.5 166.5Z" fill="#635A61"/>
<path fill-rule="evenodd" clip-rule="evenodd" d="M273.5 165.5C274.887 168.185 273.887 169.852 270.5 170.5C268.003 170.065 266.837 168.731 267 166.5C269.864 169.402 272.031 169.068 273.5 165.5Z" fill="#625961"/>
<path fill-rule="evenodd" clip-rule="evenodd" d="M293.5 173.5C314.439 183.107 328.773 198.774 336.5 220.5C335.452 224.264 334.119 227.931 332.5 231.5C326.42 209.583 313.42 193.083 293.5 182C291.937 181.241 290.937 180.074 290.5 178.5C291.692 176.887 292.692 175.22 293.5 173.5Z" fill="#AF83BD"/>
<path fill-rule="evenodd" clip-rule="evenodd" d="M256.5 175.5C258.833 175.5 261.167 175.5 263.5 175.5C262.365 177.213 260.698 177.88 258.5 177.5C257.833 176.833 257.167 176.167 256.5 175.5Z" fill="#E7CFD4"/>
<path fill-rule="evenodd" clip-rule="evenodd" d="M256.5 175.5C257.167 176.167 257.833 176.833 258.5 177.5C259.5 178.167 260.5 178.833 261.5 179.5C259.585 179.216 257.919 179.549 256.5 180.5C254.259 179.7 253.259 178.034 253.5 175.5C254.5 175.5 255.5 175.5 256.5 175.5Z" fill="#D7667F"/>
<path fill-rule="evenodd" clip-rule="evenodd" d="M263.5 175.5C266.03 177.33 265.697 178.996 262.5 180.5C262.5 179.833 262.167 179.5 261.5 179.5C260.5 178.833 259.5 178.167 258.5 177.5C260.698 177.88 262.365 177.213 263.5 175.5Z" fill="#9C374F"/>
<path fill-rule="evenodd" clip-rule="evenodd" d="M160.5 177.5C149.917 192.906 143.251 209.906 140.5 228.5C125.5 228.5 110.5 228.5 95.5 228.5C96.1667 223.5 96.8333 218.5 97.5 213.5C106.839 213.666 116.173 213.5 125.5 213C126.308 212.692 126.975 212.192 127.5 211.5C125.997 209.578 123.997 208.412 121.5 208C114.544 206.771 107.544 205.938 100.5 205.5C101.962 196.329 104.962 187.662 109.5 179.5C126.484 178.404 143.484 177.737 160.5 177.5Z" fill="#F4D2FF"/>
<path fill-rule="evenodd" clip-rule="evenodd" d="M261.5 179.5C262.167 179.5 262.5 179.833 262.5 180.5C260.5 181.833 258.5 181.833 256.5 180.5C257.919 179.549 259.585 179.216 261.5 179.5Z" fill="#FDF9F9"/>
<path fill-rule="evenodd" clip-rule="evenodd" d="M230.5 181.5C231.5 181.5 232.5 181.5 233.5 181.5C233.758 185.44 234.924 189.107 237 192.5C240.062 195.732 243.229 198.732 246.5 201.5C236.753 201.08 227.086 201.58 217.5 203C210.697 206.307 205.364 211.14 201.5 217.5C197.874 219.459 194.874 222.126 192.5 225.5C199.115 205.555 211.782 190.889 230.5 181.5Z" fill="#AF83BD"/>
<path fill-rule="evenodd" clip-rule="evenodd" d="M286.5 181.5C310.891 191.899 325.224 210.233 329.5 236.5C326.167 232.167 322.833 227.833 319.5 223.5C316.732 212.232 309.732 205.065 298.5 202C289.84 201.5 281.173 201.334 272.5 201.5C279.655 196.505 284.322 189.838 286.5 181.5Z" fill="#AF83BD"/>
<path fill-rule="evenodd" clip-rule="evenodd" d="M293.5 169.5C304.227 174.39 313.727 181.057 322 189.5C328.626 197.79 334.46 206.457 339.5 215.5C338.737 217.368 337.737 219.035 336.5 220.5C328.773 198.774 314.439 183.107 293.5 173.5C293.5 172.167 293.5 170.833 293.5 169.5Z" fill="#D1A4E0"/>
<path fill-rule="evenodd" clip-rule="evenodd" d="M379.5 193.5C391.536 192.922 401.703 197.255 410 206.5C412.478 209.789 414.144 213.456 415 217.5C415.905 230.202 416.905 242.868 418 255.5C421.691 262.03 427.191 266.03 434.5 267.5C430.587 303.305 416.92 334.638 393.5 361.5C393.666 357.486 393.499 353.486 393 349.5C391.961 348.29 390.794 347.29 389.5 346.5C369.671 345.668 349.671 345.168 329.5 345C366.735 317.346 383.568 280.18 380 233.5C379.229 228.145 378.395 222.812 377.5 217.5C380.626 209.745 381.293 201.745 379.5 193.5Z" fill="#F4D2FF"/>
<path fill-rule="evenodd" clip-rule="evenodd" d="M246.5 201.5C246.833 201.5 247.167 201.5 247.5 201.5C247.5 203.5 247.5 205.5 247.5 207.5C246.698 214.271 249.365 219.104 255.5 222C262.783 223.416 268.116 220.916 271.5 214.5C273.813 216.209 275.313 218.543 276 221.5C278.346 235.125 274.68 246.792 265 256.5C264.5 273.497 264.333 290.497 264.5 307.5C260.988 308.055 257.988 307.388 255.5 305.5C255.457 294.945 250.457 287.778 240.5 284C229.451 281.809 219.784 276.975 211.5 269.5C211.818 264.968 211.485 260.634 210.5 256.5C202.716 247.732 199.049 237.399 199.5 225.5C199.963 222.779 200.629 220.112 201.5 217.5C205.364 211.14 210.697 206.307 217.5 203C227.086 201.58 236.753 201.08 246.5 201.5Z" fill="#DD93F8"/>
<path fill-rule="evenodd" clip-rule="evenodd" d="M272.5 201.5C281.173 201.334 289.84 201.5 298.5 202C309.732 205.065 316.732 212.232 319.5 223.5C320.882 236.352 317.215 247.352 308.5 256.5C307.833 274.167 307.167 291.833 306.5 309.5C289.201 308.542 271.868 308.208 254.5 308.5C254.263 307.209 254.596 306.209 255.5 305.5C257.988 307.388 260.988 308.055 264.5 307.5C264.333 290.497 264.5 273.497 265 256.5C274.68 246.792 278.346 235.125 276 221.5C275.313 218.543 273.813 216.209 271.5 214.5C272.436 210.265 272.769 205.931 272.5 201.5Z" fill="#C98BDF"/>
<path fill-rule="evenodd" clip-rule="evenodd" d="M247.5 201.5C255.334 205.472 263.167 205.472 271 201.5C271.808 203.579 271.641 205.579 270.5 207.5C262.79 211.491 255.123 211.491 247.5 207.5C247.5 205.5 247.5 203.5 247.5 201.5Z" fill="#EF9280"/>
<path fill-rule="evenodd" clip-rule="evenodd" d="M223.5 174.5C224.124 176.754 225.457 178.421 227.5 179.5C217.647 185.844 208.813 193.51 201 202.5C195.486 210.528 191.319 219.194 188.5 228.5C185.452 232.215 182.119 235.548 178.5 238.5C182.671 209.362 197.671 188.029 223.5 174.5Z" fill="#AF83BD"/>
<path fill-rule="evenodd" clip-rule="evenodd" d="M227.5 179.5C228.71 179.932 229.71 180.599 230.5 181.5C211.782 190.889 199.115 205.555 192.5 225.5C191.738 227.262 190.404 228.262 188.5 228.5C191.319 219.194 195.486 210.528 201 202.5C208.813 193.51 217.647 185.844 227.5 179.5Z" fill="#D1A4E0"/>
<path fill-rule="evenodd" clip-rule="evenodd" d="M223.5 168.5C223.5 170.5 223.5 172.5 223.5 174.5C197.671 188.029 182.671 209.362 178.5 238.5C177.833 239.833 176.833 240.833 175.5 241.5C178.428 209.924 193.762 186.591 221.5 171.5C222.176 170.398 222.842 169.398 223.5 168.5Z" fill="#D1A4E0"/>
<path fill-rule="evenodd" clip-rule="evenodd" d="M290.5 178.5C290.937 180.074 291.937 181.241 293.5 182C313.42 193.083 326.42 209.583 332.5 231.5C331.308 233.113 330.308 234.78 329.5 236.5C325.224 210.233 310.891 191.899 286.5 181.5C287.795 180.512 289.128 179.512 290.5 178.5Z" fill="#D1A4E0"/>
<path fill-rule="evenodd" clip-rule="evenodd" d="M377.5 217.5C378.395 222.812 379.229 228.145 380 233.5C383.568 280.18 366.735 317.346 329.5 345C349.671 345.168 369.671 345.668 389.5 346.5C371.833 346.5 354.167 346.5 336.5 346.5C332.351 347.08 328.684 346.414 325.5 344.5C328.184 331.548 324.184 321.215 313.5 313.5C319.956 306.719 325.623 299.386 330.5 291.5C333.91 291.543 337.243 291.043 340.5 290C341.056 289.617 341.389 289.117 341.5 288.5C343.716 287.797 345.549 286.464 347 284.5C356.697 261.889 366.864 239.555 377.5 217.5Z" fill="#E7BFF5"/>
<path fill-rule="evenodd" clip-rule="evenodd" d="M199.5 225.5C199.049 237.399 202.716 247.732 210.5 256.5C208.372 259.13 206.039 261.63 203.5 264C206.022 266.09 208.688 267.924 211.5 269.5C219.784 276.975 229.451 281.809 240.5 284C250.457 287.778 255.457 294.945 255.5 305.5C254.596 306.209 254.263 307.209 254.5 308.5C249.519 316.905 242.019 320.905 232 320.5C223.954 319.559 216.787 316.559 210.5 311.5C210.358 308.383 209.024 305.883 206.5 304C194.833 296.333 183.167 288.667 171.5 281C164.132 272.606 163.632 263.772 170 254.5C179.702 244.631 189.535 234.964 199.5 225.5Z" fill="#F4A490"/>
<path fill-rule="evenodd" clip-rule="evenodd" d="M136.5 263.5C138.035 268.775 139.369 274.108 140.5 279.5C140.619 283.883 138.453 286.216 134 286.5C130.314 285.646 128.148 283.312 127.5 279.5C129.113 276.552 131.113 273.885 133.5 271.5C133.033 269.432 132.366 267.432 131.5 265.5C128.216 264.343 124.882 264.176 121.5 265C118.22 265.056 115.22 265.889 112.5 267.5C116.022 275.552 118.189 283.885 119 292.5C113.374 298.219 109.207 297.219 106.5 289.5C107.373 286.302 109.04 283.636 111.5 281.5C109.472 275.087 107.472 268.754 105.5 262.5C105.918 261.778 106.584 261.278 107.5 261C116.034 259.661 124.534 258.161 133 256.5C135.946 257.786 137.112 260.119 136.5 263.5Z" fill="#876493"/>
<path fill-rule="evenodd" clip-rule="evenodd" d="M210.5 256.5C211.485 260.634 211.818 264.968 211.5 269.5C208.688 267.924 206.022 266.09 203.5 264C206.039 261.63 208.372 259.13 210.5 256.5Z" fill="#AF83BD"/>
<path fill-rule="evenodd" clip-rule="evenodd" d="M160.5 257.5C157.228 265.356 158.062 272.69 163 279.5C173.908 287.372 185.075 294.872 196.5 302C199.672 305.672 203.006 309.172 206.5 312.5C197.344 319.485 193.01 328.818 193.5 340.5C194.15 342.435 194.483 344.435 194.5 346.5C180.167 346.5 165.833 346.5 151.5 346.5C146.833 346.5 142.167 346.5 137.5 346.5C154.662 345.668 171.995 345.168 189.5 345C162.078 325.002 145.745 298.169 140.5 264.5C143.385 264.806 146.052 264.473 148.5 263.5C153.063 262.552 157.063 260.552 160.5 257.5Z" fill="#E7BFF5"/>
<path opacity="0.996" fill-rule="evenodd" clip-rule="evenodd" d="M94.5 263.5C97.3171 298.786 109.817 330.119 132 357.5C132.5 371.163 132.667 384.829 132.5 398.5C117.496 398.667 102.496 398.5 87.5 398C54.6199 392.455 34.7866 373.288 28 340.5C25.1455 307.701 38.3121 283.868 67.5 269C76.0954 265.181 85.0954 263.348 94.5 263.5Z" fill="#FEF9F4"/>
<path opacity="0.996" fill-rule="evenodd" clip-rule="evenodd" d="M434.5 267.5C474.508 283.516 489.008 312.516 478 354.5C464.538 385.918 440.538 400.918 406 399.5C401.84 399.024 397.673 398.691 393.5 398.5C393.5 386.167 393.5 373.833 393.5 361.5C416.92 334.638 430.587 303.305 434.5 267.5Z" fill="#FEFAF4"/>
<path fill-rule="evenodd" clip-rule="evenodd" d="M308.5 256.5C308.5 260.833 308.5 265.167 308.5 269.5C308.5 283.167 308.5 296.833 308.5 310.5C307.508 310.672 306.842 310.338 306.5 309.5C307.167 291.833 307.833 274.167 308.5 256.5Z" fill="#9E72AC"/>
<path fill-rule="evenodd" clip-rule="evenodd" d="M398.5 281.5C406.926 281.599 415.093 282.932 423 285.5C421.553 290.525 420.053 295.692 418.5 301C423.3 304.317 423.634 307.983 419.5 312C414.834 313.01 412.501 311.177 412.5 306.5C413.696 300.718 415.363 295.052 417.5 289.5C412.556 287.617 407.556 286.95 402.5 287.5C401.735 289.295 401.068 291.128 400.5 293C401.613 294.394 402.947 295.561 404.5 296.5C406.252 300.928 404.752 303.594 400 304.5C398.289 304.561 396.956 303.894 396 302.5C396.341 295.46 397.174 288.46 398.5 281.5Z" fill="#876493"/>
<path fill-rule="evenodd" clip-rule="evenodd" d="M201.5 217.5C200.629 220.112 199.963 222.779 199.5 225.5C189.535 234.964 179.702 244.631 170 254.5C163.632 263.772 164.132 272.606 171.5 281C183.167 288.667 194.833 296.333 206.5 304C209.024 305.883 210.358 308.383 210.5 311.5C209.167 311.833 207.833 312.167 206.5 312.5C203.006 309.172 199.672 305.672 196.5 302C185.075 294.872 173.908 287.372 163 279.5C158.062 272.69 157.228 265.356 160.5 257.5C163.14 254.194 166.14 251.194 169.5 248.5C171.471 246.192 173.471 243.858 175.5 241.5C176.833 240.833 177.833 239.833 178.5 238.5C182.119 235.548 185.452 232.215 188.5 228.5C190.404 228.262 191.738 227.262 192.5 225.5C194.874 222.126 197.874 219.459 201.5 217.5Z" fill="#AF83BD"/>
<path fill-rule="evenodd" clip-rule="evenodd" d="M379.5 193.5C381.293 201.745 380.626 209.745 377.5 217.5C366.864 239.555 356.697 261.889 347 284.5C345.549 286.464 343.716 287.797 341.5 288.5C338.698 288.982 335.865 289.316 333 289.5C323.85 289.008 318.516 284.341 317 275.5C319.264 278.433 322.098 280.6 325.5 282C333.734 284.032 340.567 281.866 346 275.5C356.059 252.382 366.392 229.382 377 206.5C377.966 202.06 378.799 197.727 379.5 193.5Z" fill="#FDC3AE"/>
<path fill-rule="evenodd" clip-rule="evenodd" d="M105.5 262.5C107.472 268.754 109.472 275.087 111.5 281.5C109.04 283.636 107.373 286.302 106.5 289.5C109.207 297.219 113.374 298.219 119 292.5C118.189 283.885 116.022 275.552 112.5 267.5C115.22 265.889 118.22 265.056 121.5 265C124.882 264.176 128.216 264.343 131.5 265.5C132.366 267.432 133.033 269.432 133.5 271.5C131.113 273.885 129.113 276.552 127.5 279.5C128.148 283.312 130.314 285.646 134 286.5C138.453 286.216 140.619 283.883 140.5 279.5C139.369 274.108 138.035 268.775 136.5 263.5C140.5 263.5 144.5 263.5 148.5 263.5C146.052 264.473 143.385 264.806 140.5 264.5C145.745 298.169 162.078 325.002 189.5 345C171.995 345.168 154.662 345.668 137.5 346.5C135.983 346.511 134.816 347.177 134 348.5C133.5 385.832 133.333 423.165 133.5 460.5C133.5 460.833 133.5 461.167 133.5 461.5C133.167 461.5 132.833 461.5 132.5 461.5C132.5 440.5 132.5 419.5 132.5 398.5C132.667 384.829 132.5 371.163 132 357.5C109.817 330.119 97.3171 298.786 94.5 263.5C98.2693 263.756 101.936 263.423 105.5 262.5Z" fill="#F4D2FF"/>
<path fill-rule="evenodd" clip-rule="evenodd" d="M308.5 269.5C312.195 273.715 315.361 278.382 318 283.5C320.501 286.848 323.668 289.182 327.5 290.5C322.969 298.907 316.636 305.574 308.5 310.5C308.5 296.833 308.5 283.167 308.5 269.5Z" fill="#AF83BD"/>
<path fill-rule="evenodd" clip-rule="evenodd" d="M218.5 295.5C227.519 294.166 233.519 297.666 236.5 306C234.193 313.325 229.193 316.325 221.5 315C214.381 312.586 211.547 307.753 213 300.5C214.812 298.7 216.645 297.033 218.5 295.5Z" fill="#FDC3AE"/>
<path fill-rule="evenodd" clip-rule="evenodd" d="M327.5 290.5C328.391 291.11 329.391 291.443 330.5 291.5C325.623 299.386 319.956 306.719 313.5 313.5C311.887 312.308 310.22 311.308 308.5 310.5C316.636 305.574 322.969 298.907 327.5 290.5Z" fill="#D1A4E0"/>
<path fill-rule="evenodd" clip-rule="evenodd" d="M254.5 308.5C271.868 308.208 289.201 308.542 306.5 309.5C306.842 310.338 307.508 310.672 308.5 310.5C310.22 311.308 311.887 312.308 313.5 313.5C324.184 321.215 328.184 331.548 325.5 344.5C324.596 345.209 324.263 346.209 324.5 347.5C325.256 329.082 316.422 318.749 298 316.5C286.122 318.215 278.955 324.882 276.5 336.5C275.506 345.986 275.173 355.652 275.5 365.5C264.5 365.5 253.5 365.5 242.5 365.5C242.17 381.009 242.504 396.342 243.5 411.5C243.5 412.833 243.5 414.167 243.5 415.5C243.5 420.833 243.5 426.167 243.5 431.5C243.5 434.5 243.5 437.5 243.5 440.5C243.5 442.5 243.5 444.5 243.5 446.5C241.5 446.5 239.5 446.5 237.5 446.5C235.5 446.5 233.5 446.5 231.5 446.5C231.667 421.164 231.5 395.831 231 370.5C230.911 361.758 230.244 353.091 229 344.5C222.283 331.396 211.783 326.896 197.5 331C195.288 333.888 193.954 337.055 193.5 340.5C193.01 328.818 197.344 319.485 206.5 312.5C207.833 312.167 209.167 311.833 210.5 311.5C216.787 316.559 223.954 319.559 232 320.5C242.019 320.905 249.519 316.905 254.5 308.5Z" fill="#7D689B"/>
<path fill-rule="evenodd" clip-rule="evenodd" d="M324.5 347.5C324.167 348.167 323.833 348.833 323.5 349.5C323.5 351.833 323.5 354.167 323.5 356.5C323.5 361.833 323.5 367.167 323.5 372.5C322.502 397.328 322.169 422.328 322.5 447.5C320.833 447.5 319.167 447.5 317.5 447.5C315.833 447.5 314.167 447.5 312.5 447.5C313.211 415.502 313.377 383.502 313 351.5C309.243 339.533 301.077 333.199 288.5 332.5C284.159 332.916 280.159 334.249 276.5 336.5C278.955 324.882 286.122 318.215 298 316.5C316.422 318.749 325.256 329.082 324.5 347.5Z" fill="#8E76B1"/>
<path fill-rule="evenodd" clip-rule="evenodd" d="M231.5 446.5C221.5 446.5 211.5 446.5 201.5 446.5C199.5 446.5 197.5 446.5 195.5 446.5C195.83 426.326 195.497 406.326 194.5 386.5C194.5 386.167 194.5 385.833 194.5 385.5C194.5 382.5 194.5 379.5 194.5 376.5C194.5 366.5 194.5 356.5 194.5 346.5C194.483 344.435 194.15 342.435 193.5 340.5C193.954 337.055 195.288 333.888 197.5 331C211.783 326.896 222.283 331.396 229 344.5C230.244 353.091 230.911 361.758 231 370.5C231.5 395.831 231.667 421.164 231.5 446.5Z" fill="#BD93F9"/>
<path fill-rule="evenodd" clip-rule="evenodd" d="M312.5 447.5C302.5 447.5 292.5 447.5 282.5 447.5C279.833 447.5 277.167 447.5 274.5 447.5C274.5 445.167 274.5 442.833 274.5 440.5C274.5 437.5 274.5 434.5 274.5 431.5C275.497 410.34 275.831 389.007 275.5 367.5C265.013 366.506 254.346 366.172 243.5 366.5C243.5 374.167 243.5 381.833 243.5 389.5C243.5 391.5 243.5 393.5 243.5 395.5C243.5 400.833 243.5 406.167 243.5 411.5C242.504 396.342 242.17 381.009 242.5 365.5C253.5 365.5 264.5 365.5 275.5 365.5C275.173 355.652 275.506 345.986 276.5 336.5C280.159 334.249 284.159 332.916 288.5 332.5C301.077 333.199 309.243 339.533 313 351.5C313.377 383.502 313.211 415.502 312.5 447.5Z" fill="#BD93F9"/>
<path fill-rule="evenodd" clip-rule="evenodd" d="M204.5 339.5C207.602 339.154 210.435 339.821 213 341.5C214.245 347.39 214.912 353.39 215 359.5C215.667 372.833 215.667 386.167 215 399.5C210.333 406.167 205.667 406.167 201 399.5C200.333 380.5 200.333 361.5 201 342.5C202.145 341.364 203.312 340.364 204.5 339.5Z" fill="#A286CA"/>
<path fill-rule="evenodd" clip-rule="evenodd" d="M137.5 346.5C142.167 346.5 146.833 346.5 151.5 346.5C151.168 356.522 151.501 366.522 152.5 376.5C166.52 365.836 180.52 365.836 194.5 376.5C194.5 379.5 194.5 382.5 194.5 385.5C179.366 369.972 163.866 369.639 148 384.5C137.431 402.153 140.597 416.987 157.5 429C172.137 434.78 184.304 431.613 194 419.5C194.5 408.505 194.667 397.505 194.5 386.5C195.497 406.326 195.83 426.326 195.5 446.5C197.5 446.5 199.5 446.5 201.5 446.5C201.5 447.5 201.5 448.5 201.5 449.5C198.246 447.813 196.246 448.813 195.5 452.5C196.125 455.986 197.958 456.986 201 455.5C201.494 457.134 201.66 458.801 201.5 460.5C178.833 460.5 156.167 460.5 133.5 460.5C133.333 423.165 133.5 385.832 134 348.5C134.816 347.177 135.983 346.511 137.5 346.5Z" fill="#DD93F8"/>
<path fill-rule="evenodd" clip-rule="evenodd" d="M151.5 346.5C165.833 346.5 180.167 346.5 194.5 346.5C194.5 356.5 194.5 366.5 194.5 376.5C180.52 365.836 166.52 365.836 152.5 376.5C151.501 366.522 151.168 356.522 151.5 346.5Z" fill="#EFB6F8"/>
<path fill-rule="evenodd" clip-rule="evenodd" d="M325.5 344.5C328.684 346.414 332.351 347.08 336.5 346.5C336.334 356.506 336.5 366.506 337 376.5C355.208 363.96 371.208 366.293 385 383.5C393.785 402.742 389.285 418.076 371.5 429.5C378.281 433.361 385.615 435.028 393.5 434.5C393.5 443.5 393.5 452.5 393.5 461.5C368.167 461.5 342.833 461.5 317.5 461.5C317.5 457.167 317.5 452.833 317.5 448.5C319.5 448.5 321.5 448.5 323.5 448.5C323.5 423.167 323.5 397.833 323.5 372.5C323.5 367.167 323.5 361.833 323.5 356.5C328.328 356.615 329.661 354.448 327.5 350C326.207 349.51 324.873 349.343 323.5 349.5C323.833 348.833 324.167 348.167 324.5 347.5C324.263 346.209 324.596 345.209 325.5 344.5Z" fill="#DD93F8"/>
<path fill-rule="evenodd" clip-rule="evenodd" d="M336.5 346.5C354.167 346.5 371.833 346.5 389.5 346.5C390.794 347.29 391.961 348.29 393 349.5C393.499 353.486 393.666 357.486 393.5 361.5C393.5 373.833 393.5 386.167 393.5 398.5C393.5 410.5 393.5 422.5 393.5 434.5C385.615 435.028 378.281 433.361 371.5 429.5C389.285 418.076 393.785 402.742 385 383.5C371.208 366.293 355.208 363.96 337 376.5C336.5 366.506 336.334 356.506 336.5 346.5Z" fill="#EFB6F8"/>
<path fill-rule="evenodd" clip-rule="evenodd" d="M289.5 348.5C293.594 347.705 296.761 349.038 299 352.5C299.667 371.5 299.667 390.5 299 409.5C293.837 415.062 289.171 414.729 285 408.5C284.333 390.5 284.333 372.5 285 354.5C285.971 352.039 287.471 350.039 289.5 348.5Z" fill="#A286CA"/>
<path fill-rule="evenodd" clip-rule="evenodd" d="M323.5 349.5C324.873 349.343 326.207 349.51 327.5 350C329.661 354.448 328.328 356.615 323.5 356.5C323.5 354.167 323.5 351.833 323.5 349.5Z" fill="#AF83BD"/>
<path fill-rule="evenodd" clip-rule="evenodd" d="M381.5 349.5C386.493 349.997 387.493 352.164 384.5 356C379.382 355.824 378.382 353.658 381.5 349.5Z" fill="#AF83BD"/>
<path fill-rule="evenodd" clip-rule="evenodd" d="M139.5 349.5C144.328 349.385 145.661 351.552 143.5 356C138.57 356.427 137.237 354.26 139.5 349.5Z" fill="#AF83BD"/>
<path fill-rule="evenodd" clip-rule="evenodd" d="M275.5 367.5C274.508 374.648 274.175 381.981 274.5 389.5C264.167 389.5 253.833 389.5 243.5 389.5C243.5 381.833 243.5 374.167 243.5 366.5C254.346 366.172 265.013 366.506 275.5 367.5Z" fill="#DD93F8"/>
<path fill-rule="evenodd" clip-rule="evenodd" d="M194.5 385.5C194.5 385.833 194.5 386.167 194.5 386.5C194.667 397.505 194.5 408.505 194 419.5C184.304 431.613 172.137 434.78 157.5 429C140.597 416.987 137.431 402.153 148 384.5C163.866 369.639 179.366 369.972 194.5 385.5Z" fill="#AF8CFF"/>
<path fill-rule="evenodd" clip-rule="evenodd" d="M350.5 373.5C367.639 372.641 378.806 380.308 384 396.5C385.011 421.155 373.178 432.655 348.5 431C332.574 424.984 325.407 413.484 327 396.5C330.787 384.544 338.621 376.878 350.5 373.5Z" fill="#AF8CFF"/>
<path fill-rule="evenodd" clip-rule="evenodd" d="M164.5 378.5C166.924 378.192 169.257 378.526 171.5 379.5C153.978 387.581 149.812 400.248 159 417.5C162.387 421.446 166.554 424.28 171.5 426C155.859 426.372 146.859 418.705 144.5 403C145.517 390.155 152.184 381.989 164.5 378.5Z" fill="#E6C2F2"/>
<path fill-rule="evenodd" clip-rule="evenodd" d="M346.5 379.5C349.518 379.335 352.518 379.502 355.5 380C338.633 388.369 334.799 400.869 344 417.5C347.387 421.446 351.554 424.28 356.5 426C342.865 426.918 334.031 420.751 330 407.5C328.676 394.021 334.176 384.687 346.5 379.5Z" fill="#E6C2F2"/>
<path fill-rule="evenodd" clip-rule="evenodd" d="M275.5 367.5C275.831 389.007 275.497 410.34 274.5 431.5C274.5 426.167 274.5 420.833 274.5 415.5C264.167 415.5 253.833 415.5 243.5 415.5C243.5 414.167 243.5 412.833 243.5 411.5C253.833 411.5 264.167 411.5 274.5 411.5C274.5 406.167 274.5 400.833 274.5 395.5C264.167 395.5 253.833 395.5 243.5 395.5C243.5 393.5 243.5 391.5 243.5 389.5C253.833 389.5 264.167 389.5 274.5 389.5C274.175 381.981 274.508 374.648 275.5 367.5Z" fill="#B981CC"/>
<path fill-rule="evenodd" clip-rule="evenodd" d="M243.5 395.5C253.833 395.5 264.167 395.5 274.5 395.5C274.5 400.833 274.5 406.167 274.5 411.5C264.167 411.5 253.833 411.5 243.5 411.5C243.5 406.167 243.5 400.833 243.5 395.5Z" fill="#EFB6F8"/>
<path fill-rule="evenodd" clip-rule="evenodd" d="M167.5 397.5C175.244 397.048 177.577 400.215 174.5 407C167.735 409.243 164.902 406.743 166 399.5C166.717 398.956 167.217 398.289 167.5 397.5Z" fill="#663989"/>
<path fill-rule="evenodd" clip-rule="evenodd" d="M352.5 397.5C361.056 397.34 363.056 400.674 358.5 407.5C352.198 408.695 349.698 406.028 351 399.5C351.717 398.956 352.217 398.289 352.5 397.5Z" fill="#663989"/>
<path fill-rule="evenodd" clip-rule="evenodd" d="M243.5 415.5C253.833 415.5 264.167 415.5 274.5 415.5C274.5 420.833 274.5 426.167 274.5 431.5C264.167 431.5 253.833 431.5 243.5 431.5C243.5 426.167 243.5 420.833 243.5 415.5Z" fill="#EFB6F8"/>
<path fill-rule="evenodd" clip-rule="evenodd" d="M243.5 431.5C253.833 431.5 264.167 431.5 274.5 431.5C274.5 434.5 274.5 437.5 274.5 440.5C264.167 440.5 253.833 440.5 243.5 440.5C243.5 437.5 243.5 434.5 243.5 431.5Z" fill="#976AA7"/>
<path fill-rule="evenodd" clip-rule="evenodd" d="M323.5 372.5C323.5 397.833 323.5 423.167 323.5 448.5C321.5 448.5 319.5 448.5 317.5 448.5C317.5 448.167 317.5 447.833 317.5 447.5C319.167 447.5 320.833 447.5 322.5 447.5C322.169 422.328 322.502 397.328 323.5 372.5Z" fill="#875844"/>
<path fill-rule="evenodd" clip-rule="evenodd" d="M243.5 440.5C253.833 440.5 264.167 440.5 274.5 440.5C274.5 442.833 274.5 445.167 274.5 447.5C277.167 447.5 279.833 447.5 282.5 447.5C282.5 449.5 282.5 451.5 282.5 453.5C267.5 453.5 252.5 453.5 237.5 453.5C237.5 451.167 237.5 448.833 237.5 446.5C239.5 446.5 241.5 446.5 243.5 446.5C243.5 444.5 243.5 442.5 243.5 440.5Z" fill="#EFB6F8"/>
<path fill-rule="evenodd" clip-rule="evenodd" d="M201.5 446.5C211.5 446.5 221.5 446.5 231.5 446.5C233.5 446.5 235.5 446.5 237.5 446.5C237.5 448.833 237.5 451.167 237.5 453.5C237.5 456.167 237.5 458.833 237.5 461.5C237.5 461.833 237.5 462.167 237.5 462.5C233.983 459.744 229.983 458.077 225.5 457.5C216.38 455.77 209.046 458.77 203.5 466.5C202.549 465.081 202.216 463.415 202.5 461.5C202.763 457.4 202.43 453.4 201.5 449.5C201.5 448.5 201.5 447.5 201.5 446.5Z" fill="#F1A18E"/>
<path fill-rule="evenodd" clip-rule="evenodd" d="M282.5 447.5C292.5 447.5 302.5 447.5 312.5 447.5C314.167 447.5 315.833 447.5 317.5 447.5C317.5 447.833 317.5 448.167 317.5 448.5C317.5 452.833 317.5 457.167 317.5 461.5C342.833 461.5 368.167 461.5 393.5 461.5C420.672 461.169 447.672 461.502 474.5 462.5C421.762 462.171 369.095 462.505 316.5 463.5C310.953 457.234 303.953 454.568 295.5 455.5C290.457 456.549 286.124 458.882 282.5 462.5C282.5 462.167 282.5 461.833 282.5 461.5C282.5 458.833 282.5 456.167 282.5 453.5C282.5 451.5 282.5 449.5 282.5 447.5Z" fill="#E69F88"/>
<path fill-rule="evenodd" clip-rule="evenodd" d="M324.5 448.5C328.184 449.372 329.184 451.539 327.5 455C322.148 455.175 321.148 453.009 324.5 448.5Z" fill="#AF83BD"/>
<path fill-rule="evenodd" clip-rule="evenodd" d="M140.5 448.5C145.341 450.544 145.675 453.211 141.5 456.5C137.933 454.235 137.6 451.568 140.5 448.5Z" fill="#AF83BD"/>
<path fill-rule="evenodd" clip-rule="evenodd" d="M381.5 448.5C384.321 448.316 385.988 449.649 386.5 452.5C384.106 457.808 381.773 457.808 379.5 452.5C379.752 450.927 380.418 449.594 381.5 448.5Z" fill="#AF83BD"/>
<path fill-rule="evenodd" clip-rule="evenodd" d="M237.5 453.5C252.5 453.5 267.5 453.5 282.5 453.5C282.5 456.167 282.5 458.833 282.5 461.5C267.5 461.5 252.5 461.5 237.5 461.5C237.5 458.833 237.5 456.167 237.5 453.5Z" fill="#DD93F8"/>
<path fill-rule="evenodd" clip-rule="evenodd" d="M295.5 455.5C301.685 457.682 306.352 461.682 309.5 467.5C299.503 467.916 289.503 468.25 279.5 468.5C279.975 466.216 280.975 464.216 282.5 462.5C286.124 458.882 290.457 456.549 295.5 455.5Z" fill="#A286CA"/>
<path fill-rule="evenodd" clip-rule="evenodd" d="M225.5 457.5C217.892 457.259 217.892 458.426 225.5 461C228.447 463.436 230.78 466.269 232.5 469.5C222.153 469.485 211.819 469.818 201.5 470.5C201.5 470.167 201.5 469.833 201.5 469.5C201.5 469.167 201.5 468.833 201.5 468.5C202.5 468.167 203.167 467.5 203.5 466.5C209.046 458.77 216.38 455.77 225.5 457.5Z" fill="#A286CA"/>
<path fill-rule="evenodd" clip-rule="evenodd" d="M201.5 449.5C202.43 453.4 202.763 457.4 202.5 461.5C179.5 461.5 156.5 461.5 133.5 461.5C133.5 461.167 133.5 460.833 133.5 460.5C156.167 460.5 178.833 460.5 201.5 460.5C201.66 458.801 201.494 457.134 201 455.5C197.958 456.986 196.125 455.986 195.5 452.5C196.246 448.813 198.246 447.813 201.5 449.5Z" fill="#AF83BD"/>
<path fill-rule="evenodd" clip-rule="evenodd" d="M82.5 462.5C98.9916 461.503 115.658 461.17 132.5 461.5C132.833 461.5 133.167 461.5 133.5 461.5C156.5 461.5 179.5 461.5 202.5 461.5C202.216 463.415 202.549 465.081 203.5 466.5C203.167 467.5 202.5 468.167 201.5 468.5C201.5 466.5 201.5 464.5 201.5 462.5C161.833 462.5 122.167 462.5 82.5 462.5Z" fill="#C0906B"/>
<path fill-rule="evenodd" clip-rule="evenodd" d="M42.5 461.5C53.1719 461.333 63.8385 461.5 74.5 462C77.1667 464.667 77.1667 467.333 74.5 470C63.8333 470.667 53.1667 470.667 42.5 470C39.8987 467.17 39.8987 464.337 42.5 461.5Z" fill="#AB6F3F"/>
<path fill-rule="evenodd" clip-rule="evenodd" d="M82.5 462.5C122.167 462.5 161.833 462.5 201.5 462.5C201.5 464.5 201.5 466.5 201.5 468.5C201.5 468.833 201.5 469.167 201.5 469.5C161.833 469.5 122.167 469.5 82.5 469.5C78.5 467.167 78.5 464.833 82.5 462.5Z" fill="#A56633"/>
<path fill-rule="evenodd" clip-rule="evenodd" d="M237.5 461.5C252.5 461.5 267.5 461.5 282.5 461.5C282.5 461.833 282.5 462.167 282.5 462.5C280.975 464.216 279.975 466.216 279.5 468.5C276.609 469.006 273.942 470.006 271.5 471.5C265.167 470.167 258.833 470.167 252.5 471.5C251.691 470.531 250.691 469.698 249.5 469C246.833 468.667 244.167 468.333 241.5 468C240.335 466.008 239.002 464.175 237.5 462.5C237.5 462.167 237.5 461.833 237.5 461.5Z" fill="#A96C3B"/>
<path fill-rule="evenodd" clip-rule="evenodd" d="M474.5 462.5C478.432 464.91 478.432 467.41 474.5 470C426.501 470.5 378.501 470.667 330.5 470.5C327.285 467.232 323.285 465.732 318.5 466C317.619 465.292 316.953 464.458 316.5 463.5C369.095 462.505 421.762 462.171 474.5 462.5Z" fill="#A76937"/>
<path fill-rule="evenodd" clip-rule="evenodd" d="M309.5 467.5C321.312 466.606 324.645 471.273 319.5 481.5C303.778 481.452 288.112 480.619 272.5 479C270.453 476.67 270.12 474.17 271.5 471.5C273.942 470.006 276.609 469.006 279.5 468.5C289.503 468.25 299.503 467.916 309.5 467.5Z" fill="#BD93F9"/>
<path fill-rule="evenodd" clip-rule="evenodd" d="M295.5 455.5C303.953 454.568 310.953 457.234 316.5 463.5C316.953 464.458 317.619 465.292 318.5 466C323.285 465.732 327.285 467.232 330.5 470.5C332.519 479.815 328.852 483.481 319.5 481.5C324.645 471.273 321.312 466.606 309.5 467.5C306.352 461.682 301.685 457.682 295.5 455.5Z" fill="#9277B8"/>
<path opacity="0.737" fill-rule="evenodd" clip-rule="evenodd" d="M82.5 469.5C122.167 469.5 161.833 469.5 201.5 469.5C201.5 469.833 201.5 470.167 201.5 470.5C200.432 471.434 199.099 471.768 197.5 471.5C159.167 470.833 120.833 470.167 82.5 469.5Z" fill="#B9865E"/>
<path opacity="0.999" fill-rule="evenodd" clip-rule="evenodd" d="M232.5 469.5C237.535 468.502 241.702 469.835 245 473.5C245.818 477.531 244.651 480.864 241.5 483.5C226.48 483.063 211.48 482.229 196.5 481C193.797 479.18 192.964 476.68 194 473.5C194.816 472.177 195.983 471.511 197.5 471.5C199.099 471.768 200.432 471.434 201.5 470.5C211.819 469.818 222.153 469.485 232.5 469.5Z" fill="#BD93F9"/>
<path opacity="0.998" fill-rule="evenodd" clip-rule="evenodd" d="M225.5 457.5C229.983 458.077 233.983 459.744 237.5 462.5C239.002 464.175 240.335 466.008 241.5 468C244.167 468.333 246.833 468.667 249.5 469C250.691 469.698 251.691 470.531 252.5 471.5C255.416 475.775 254.749 479.608 250.5 483C247.518 483.498 244.518 483.665 241.5 483.5C244.651 480.864 245.818 477.531 245 473.5C241.702 469.835 237.535 468.502 232.5 469.5C230.78 466.269 228.447 463.436 225.5 461C217.892 458.426 217.892 457.259 225.5 457.5Z" fill="#9277B8"/>
</svg>
